<svg width="45" height="20" viewBox="0 0 45 20" fill="none" xmlns="http://www.w3.org/2000/svg">
<path d="M1.4272 12.6866C7.51821 16.8772 12.2897 19.9343 19.568 17.1378C23.042 15.8029 25.0425 12.8261 24.6538 9.03657C23.9465 2.14053 14.396 7.89862 17.5753 12.4703C23.4035 20.8512 34.7591 14.1805 38.8612 7.86064C40.0566 6.01891 41.3815 3.90147 42.3558 1.95716C43.2009 0.270678 42.7673 2.5217 42.714 3.24724C42.6152 4.59139 42.8968 5.82633 42.8003 7.14023C42.6315 9.43936 42.5618 7.2351 42.6975 6.18826C43.0868 3.18539 44.1154 0.686036 40.2414 2.05577C39.4617 2.33141 35.3608 3.42323 35.8868 3.72897C37.3779 4.59577 38.6805 6.37653 40.1125 7.10223C42.0727 8.09562 42.8825 9.25918 40.7761 6.76791C40.0888 5.95504 39.3502 5.29775 38.643 4.53385C37.4776 3.27496 39.307 4.6666 39.4166 4.87114C39.7351 5.46526 40.9877 6.2257 39.9484 5.10302C39.6809 4.81399 38.4325 3.81841 38.8715 4.00982C40.2577 4.61419 41.4868 6.77357 41.3921 5.61909C41.3125 4.64892 40.818 4.28842 39.9287 3.9605C39.626 3.84888 38.1857 4.22104 38.6846 4.43857" stroke="white" stroke-width="2" stroke-linecap="round"/>
</svg>
