<svg width="32" height="32" viewBox="0 0 32 32" fill="none" xmlns="http://www.w3.org/2000/svg">
<g clip-path="url(#clip0_102_825)">
<circle cx="16" cy="16" r="16" fill="#F16529"/>
<path d="M11.7672 10.5278H16.0222V7.52002H8.48001L8.55196 8.32695L9.29128 16.6157H16.0222V13.6079H12.0421L11.7672 10.5278V10.5278ZM12.4451 18.1197H9.42567L9.84703 22.8424L16.0084 24.5527L16.0222 24.549V21.4196L16.009 21.4231L12.6592 20.5185L12.4451 18.1197V18.1197Z" fill="#EBEBEB"/>
<path d="M16.0119 16.6157H19.7157L19.3665 20.5167L16.0118 21.4221V24.5513L22.178 22.8424L22.2232 22.3342L22.9302 14.4156L23.0035 13.6079H16.0119V16.6157ZM16.0119 10.5205V10.5278H23.2772L23.3375 9.85182L23.4746 8.32695L23.5465 7.52002H16.0119V10.5206V10.5205Z" fill="white"/>
</g>
<defs>
<clipPath id="clip0_102_825">
<rect width="32" height="32" fill="white"/>
</clipPath>
</defs>
</svg>
