<svg width="32" height="32" viewBox="0 0 32 32" fill="none" xmlns="http://www.w3.org/2000/svg">
<g clip-path="url(#clip0_102_819)">
<circle cx="16" cy="16" r="16" fill="#2E0501"/>
<path d="M15.8427 19.0775H11.4445L10.3449 22.2548C10.3323 22.3516 10.2628 22.4 10.1364 22.4H8.14583C8.01944 22.4 7.97521 22.3395 8.01312 22.2184L11.9564 11.4338C12.0448 11.2522 12.1017 10.9133 12.127 10.417C12.127 10.3444 12.1712 10.3081 12.2597 10.3081H14.9896C15.0528 10.3081 15.1034 10.3384 15.1413 10.3989L19.5395 22.2366C19.5774 22.3455 19.5395 22.4 19.4258 22.4H17.1887C17.1003 22.4 17.0371 22.3576 16.9992 22.2729L15.8427 19.0775ZM11.9374 17.3163H15.3498C15.2993 17.1469 15.0339 16.3783 14.5536 15.0105C14.086 13.6306 13.7763 12.6865 13.6247 12.1782H13.6057C13.454 12.7955 12.8979 14.5082 11.9374 17.3163Z" fill="#F2A032"/>
<path d="M20.7165 22.2366V13.7033C20.7165 13.6064 20.7671 13.558 20.8682 13.558H22.9725C23.0736 13.558 23.1242 13.6064 23.1242 13.7033V22.2548C23.1242 22.3516 23.0736 22.4 22.9725 22.4H20.8871C20.7734 22.4 20.7165 22.3455 20.7165 22.2366ZM22.8588 11.7243C22.6313 11.9421 22.3216 12.0511 21.9298 12.0511C21.538 12.0511 21.2284 11.9421 21.0009 11.7243C20.7734 11.5064 20.6596 11.2098 20.6596 10.8346C20.6596 10.4715 20.7797 10.1749 21.0198 9.94497C21.26 9.71499 21.5696 9.60001 21.9488 9.60001C22.3279 9.60001 22.6313 9.71499 22.8588 9.94497C23.0863 10.1749 23.2 10.4715 23.2 10.8346C23.2 11.2098 23.0863 11.5064 22.8588 11.7243Z" fill="#F2A032"/>
</g>
<defs>
<clipPath id="clip0_102_819">
<rect width="32" height="32" fill="white"/>
</clipPath>
</defs>
</svg>
