<svg width="32" height="32" viewBox="0 0 32 32" fill="none" xmlns="http://www.w3.org/2000/svg">
<g clip-path="url(#clip0_102_820)">
<circle cx="16" cy="16" r="16" fill="#F7DF1E"/>
<path d="M18.1462 18.6696C18.6939 19.5806 19.4065 20.2501 20.6668 20.2501C21.7255 20.2501 22.4018 19.7111 22.4018 18.9664C22.4018 18.0739 21.707 17.7578 20.5416 17.2386L19.9028 16.9595C18.059 16.1593 16.8341 15.157 16.8341 13.0379C16.8341 11.0859 18.2942 9.59998 20.5761 9.59998C22.2007 9.59998 23.3687 10.1759 24.2103 11.6838L22.2206 12.9852C21.7825 12.185 21.3099 11.8698 20.5761 11.8698C19.8277 11.8698 19.3534 12.3534 19.3534 12.9852C19.3534 13.766 19.8282 14.0821 20.9245 14.5657L21.5632 14.8444C23.7342 15.7927 24.96 16.7594 24.96 18.933C24.96 21.2762 23.1529 22.56 20.7259 22.56C18.3529 22.56 16.8198 21.4081 16.0697 19.8984L18.1462 18.6696ZM9.11993 18.8952C9.52132 19.6206 9.88647 20.2339 10.7644 20.2339C11.6038 20.2339 12.1334 19.8993 12.1334 18.5984V9.74857H14.6886V18.6336C14.6886 21.3286 13.1373 22.5551 10.8731 22.5551C8.8273 22.5551 7.64253 21.4767 7.04 20.1778L9.11993 18.8952Z" fill="black"/>
</g>
<defs>
<clipPath id="clip0_102_820">
<rect width="32" height="32" fill="white"/>
</clipPath>
</defs>
</svg>
