<svg width="32" height="32" viewBox="0 0 32 32" fill="none" xmlns="http://www.w3.org/2000/svg">
<g clip-path="url(#clip0_102_823)">
<circle cx="16" cy="16" r="16" fill="white"/>
<path fill-rule="evenodd" clip-rule="evenodd" d="M13.2001 6.45235C10.0631 6.69483 7.3959 6.907 7.27466 6.92215C6.9261 6.99792 6.60785 7.22524 6.45631 7.54349L6.31992 7.81628L6.33507 14.3934L6.35023 20.9705L6.54724 21.3797C6.66847 21.607 7.42621 22.6679 8.25971 23.7438C9.91157 25.8958 10.0328 26.0019 10.6542 26.0777C10.836 26.0928 12.2151 26.0322 13.6851 25.9413C15.1702 25.8503 17.5647 25.6988 18.9892 25.623C25.0966 25.2441 24.7783 25.2745 25.142 24.9714C25.5815 24.6077 25.536 25.2138 25.5663 17.2122C25.5815 10.438 25.5663 9.98339 25.4603 9.78638C25.3542 9.54391 25.142 9.39236 22.3536 7.43741C20.4895 6.11895 20.3531 6.05833 19.5196 6.04318C19.1711 6.02802 16.322 6.22503 13.2001 6.45235Z" fill="white"/>
<path fill-rule="evenodd" clip-rule="evenodd" d="M13.2001 6.45235C10.0631 6.69483 7.3959 6.907 7.27466 6.92215C6.9261 6.99792 6.60785 7.22524 6.45631 7.54349L6.31992 7.81628L6.33507 14.3934L6.35023 20.9705L6.54724 21.3797C6.66847 21.607 7.42621 22.6679 8.25971 23.7438C9.91157 25.8958 10.0328 26.0019 10.6542 26.0777C10.836 26.0928 12.2151 26.0322 13.6851 25.9413C15.1702 25.8503 17.5647 25.6988 18.9892 25.623C25.0966 25.2441 24.7783 25.2745 25.142 24.9714C25.5815 24.6077 25.536 25.2138 25.5663 17.2122C25.5815 10.438 25.5663 9.98339 25.4603 9.78638C25.3542 9.54391 25.142 9.39236 22.3536 7.43741C20.4895 6.11895 20.3531 6.05833 19.5196 6.04318C19.1711 6.02802 16.322 6.22503 13.2001 6.45235ZM20.2471 7.31617C20.5198 7.43741 22.4445 8.77102 22.7173 9.02865C22.793 9.10442 22.8234 9.1802 22.7779 9.21051C22.7021 9.28628 10.7754 9.99855 10.4268 9.93793C10.2753 9.92278 10.048 9.83185 9.91157 9.74092C9.366 9.36205 8.01724 8.25576 8.01724 8.17999C8.01724 7.96782 7.97177 7.96782 13.2759 7.5738C14.2913 7.51318 15.9734 7.39194 16.9888 7.30102C19.1862 7.13432 19.8379 7.13432 20.2471 7.31617ZM24.0357 10.7411C24.1267 10.8321 24.2024 10.9988 24.2327 11.1655C24.2479 11.317 24.263 14.1358 24.2479 17.4092C24.2327 23.0164 24.2176 23.3801 24.1115 23.5317C24.0509 23.6378 23.9296 23.7438 23.8236 23.7741C23.5659 23.8802 11.0785 24.5925 10.8209 24.5167C10.6996 24.4864 10.5329 24.3803 10.4571 24.2894L10.3056 24.1379L10.2904 18.076C10.2753 13.8175 10.2904 11.9383 10.3359 11.7716C10.3662 11.6504 10.4723 11.4989 10.5481 11.4382C10.6542 11.3625 11.3967 11.3019 13.9427 11.1503C15.731 11.0594 18.5043 10.8927 20.0804 10.7866C23.869 10.5593 23.8539 10.5593 24.0357 10.7411Z" fill="black"/>
<path fill-rule="evenodd" clip-rule="evenodd" d="M20.6869 12.8172C20.0049 12.8627 19.3987 12.9233 19.3381 12.9687C19.1259 13.0748 19.0047 13.2567 18.9744 13.4537C18.9592 13.6507 19.0199 13.681 19.7018 13.7719L19.9898 13.8022V16.4846C19.9898 18.0759 19.9746 19.1215 19.9291 19.0912C19.8988 19.0609 19.0199 17.697 17.959 16.0906C16.8982 14.4539 16.0192 13.1203 16.0041 13.1203C15.9889 13.1051 15.307 13.1354 14.4735 13.1961C13.4581 13.2567 12.8974 13.3325 12.7913 13.3931C12.6094 13.484 12.3973 13.8174 12.3973 14.0296C12.3973 14.166 12.6397 14.2417 13.1398 14.2417H13.4126V21.9403L12.9731 22.0767C12.6549 22.1676 12.5337 22.2282 12.473 22.3646C12.3821 22.5768 12.3821 22.7587 12.4882 22.7587C12.5185 22.7587 13.2308 22.7283 14.0491 22.6677C15.6555 22.5768 15.8374 22.5313 16.0041 22.1979C16.0647 22.107 16.1102 22.0009 16.1102 21.9555C16.1102 21.9403 15.8828 21.8645 15.6252 21.8039C15.3524 21.7433 15.0796 21.6675 15.019 21.6675C14.9129 21.6372 14.9129 21.4402 14.9129 18.7427V15.8481L16.8224 18.8336C18.8228 21.9706 19.0653 22.3343 19.3836 22.4859C19.7624 22.6829 20.7323 22.5465 21.2173 22.2282L21.3688 22.1373L21.384 17.8637L21.3991 13.5749L21.7325 13.5143C22.1266 13.4385 22.3084 13.2567 22.3084 12.9384C22.3084 12.7414 22.2933 12.7263 22.1114 12.7414C22.0053 12.7414 21.3537 12.7869 20.6869 12.8172Z" fill="black"/>
</g>
<defs>
<clipPath id="clip0_102_823">
<rect width="32" height="32" fill="white"/>
</clipPath>
</defs>
</svg>
