<svg width="32" height="32" viewBox="0 0 32 32" fill="none" xmlns="http://www.w3.org/2000/svg">
<g clip-path="url(#clip0_102_818)">
<circle cx="16" cy="16" r="16" fill="#001E36"/>
<path d="M8.48 21.7751V10.0814C8.48 9.99773 8.52109 9.95588 8.60329 9.95588C9.49571 9.93197 10.6288 9.92001 12.0027 9.92001C13.6231 9.92001 14.8091 10.2907 15.5606 11.032C16.3239 11.7733 16.7055 12.688 16.7055 13.7761C16.7055 15.1272 16.2358 16.1315 15.2964 16.7892C14.357 17.4468 13.1769 17.7756 11.7561 17.7756H10.7169V21.7572C10.7169 21.8528 10.6699 21.9007 10.576 21.9007H8.6209C8.52697 21.9007 8.48 21.8588 8.48 21.7751ZM10.7169 11.6418V16.0538C10.8813 16.0777 11.2629 16.0897 11.8618 16.0897C12.6485 16.0897 13.2826 15.9163 13.764 15.5696C14.2572 15.2109 14.5038 14.631 14.5038 13.8299C14.5038 13.1244 14.2866 12.5804 13.8521 12.1978C13.4294 11.8152 12.8129 11.6238 12.0027 11.6238C11.8031 11.6238 11.6035 11.6298 11.4038 11.6418C11.216 11.6418 11.0574 11.6418 10.9283 11.6418C10.8108 11.6418 10.7404 11.6418 10.7169 11.6418Z" fill="#31A8FE"/>
<path d="M22.8507 15.2288C22.1931 14.8103 21.5062 14.6011 20.7899 14.6011C20.3789 14.6011 20.0736 14.6788 19.874 14.8342C19.6861 14.9897 19.5922 15.175 19.5922 15.3902C19.5922 15.6054 19.6744 15.7967 19.8388 15.9641C20.0032 16.1196 20.3496 16.3049 20.878 16.5201C21.8526 16.9027 22.5336 17.3093 22.9211 17.7397C23.3204 18.1582 23.52 18.7022 23.52 19.3718C23.52 20.1849 23.2147 20.8425 22.6041 21.3447C22.0052 21.8349 21.1891 22.08 20.1558 22.08C19.1225 22.08 18.277 21.8887 17.6195 21.5061C17.549 21.4822 17.5138 21.4224 17.5138 21.3267V19.6588C17.5138 19.6109 17.5255 19.5811 17.549 19.5691C17.5842 19.5452 17.6136 19.5452 17.6371 19.5691C18.4003 20.143 19.2164 20.43 20.0854 20.43C20.4963 20.43 20.8075 20.3582 21.0189 20.2148C21.242 20.0593 21.3535 19.862 21.3535 19.6229C21.3535 19.3718 21.2655 19.1626 21.0893 18.9952C20.9132 18.8158 20.5668 18.6245 20.0501 18.4213C19.1107 18.0506 18.4532 17.656 18.0774 17.2375C17.7134 16.8071 17.5314 16.269 17.5314 15.6234C17.5314 14.8821 17.8074 14.2603 18.3592 13.7581C18.9111 13.2559 19.6979 13.0049 20.7194 13.0049C21.6706 13.0049 22.4045 13.1364 22.9211 13.3994C22.9798 13.4353 23.0092 13.513 23.0092 13.6326V15.1212C23.0092 15.2647 22.9564 15.3005 22.8507 15.2288Z" fill="#31A8FE"/>
</g>
<defs>
<clipPath id="clip0_102_818">
<rect width="32" height="32" fill="white"/>
</clipPath>
</defs>
</svg>
