<svg width="32" height="32" viewBox="0 0 32 32" fill="none" xmlns="http://www.w3.org/2000/svg">
<g clip-path="url(#clip0_102_826)">
<circle cx="16" cy="16" r="16" fill="#3178C6"/>
<path d="M24.5726 13.0091V10.5115C20.3754 8.99987 17.0177 10.7087 17.0177 13.6664C17.0177 16.624 21.0211 17.347 21.796 18.0042C22.5709 18.6615 22.5063 20.0417 20.5046 20.0417C18.9032 20.0417 17.5989 19.253 17.1469 18.8586V21.6191C20.8274 22.7364 24.96 22.6707 24.96 18.6615C24.96 14.6522 19.2777 15.2438 19.9234 13.1406C20.44 11.458 23.2381 12.3519 24.5726 13.0091Z" fill="white"/>
<path d="M6.88 9.92001H16.0491V12.1547H6.88V9.92001Z" fill="white"/>
<path d="M10.1086 12.1547H12.8206V21.882H10.1086V12.1547Z" fill="white"/>
</g>
<defs>
<clipPath id="clip0_102_826">
<rect width="32" height="32" fill="white"/>
</clipPath>
</defs>
</svg>
