<svg width="32" height="32" viewBox="0 0 32 32" fill="none" xmlns="http://www.w3.org/2000/svg">
<g clip-path="url(#clip0_102_827)">
<circle cx="16" cy="16" r="16" fill="#470137"/>
<path d="M16.6539 10.6052L13.2297 16.2551L16.8821 22.2474C16.9062 22.2888 16.9143 22.3375 16.905 22.3844C16.8936 22.43 16.8479 22.3958 16.7794 22.4072H14.1656C13.983 22.4072 13.8574 22.3958 13.7775 22.2816C13.5379 21.8023 13.2867 21.3343 13.0471 20.8549C12.8074 20.3755 12.5448 19.9075 12.2709 19.4167C11.997 18.9259 11.723 18.4351 11.4491 17.9329H11.4263C11.1866 18.4237 10.9241 18.9145 10.6615 19.4053C10.399 19.8961 10.1365 20.3869 9.88538 20.8663C9.63427 21.3457 9.36034 21.8365 9.09782 22.3045C9.05216 22.4186 8.96085 22.43 8.8353 22.43H6.32422C6.27857 22.43 6.24433 22.4529 6.24433 22.3958C6.23923 22.3744 6.23863 22.3522 6.24256 22.3306C6.24649 22.309 6.25487 22.2884 6.26715 22.2702L9.8169 16.4491L6.35847 10.5937C6.32422 10.5481 6.31281 10.5024 6.33564 10.4796C6.34955 10.4633 6.36721 10.4507 6.38709 10.4427C6.40697 10.4348 6.42848 10.4318 6.44978 10.4339H9.04075C9.09474 10.4351 9.14839 10.4428 9.20054 10.4568C9.24627 10.4814 9.28541 10.5166 9.31468 10.5595C9.53155 11.0503 9.78266 11.5411 10.0452 12.0319C10.3077 12.5227 10.5816 13.0021 10.867 13.4815C11.1523 13.9609 11.392 14.4403 11.6317 14.9311H11.6545C11.8942 14.4288 12.1453 13.938 12.3965 13.4587C12.6476 12.9793 12.9101 12.4999 13.1726 12.0205C13.4351 11.5411 13.6862 11.0503 13.9373 10.5823C13.946 10.5374 13.9703 10.497 14.0058 10.4682C14.051 10.4433 14.1036 10.4352 14.1542 10.4454H16.5626C16.576 10.4423 16.59 10.442 16.6036 10.4444C16.6172 10.4468 16.6303 10.4518 16.6419 10.4592C16.6536 10.4667 16.6637 10.4763 16.6716 10.4876C16.6795 10.499 16.6851 10.5118 16.6881 10.5253C16.6995 10.5367 16.6767 10.5823 16.6539 10.6052V10.6052Z" fill="#FF61F6"/>
<path d="M21.9271 22.6469C21.081 22.6608 20.2426 22.4853 19.4731 22.1333C18.7572 21.7985 18.1572 21.2581 17.7496 20.581C17.3273 19.8847 17.1218 19.0172 17.1218 17.9786C17.1103 17.1339 17.3272 16.3018 17.7496 15.5702C18.1827 14.8267 18.8101 14.2151 19.5644 13.8011C20.3634 13.3559 21.3222 13.1391 22.4522 13.1391C22.5322 13.1382 22.6122 13.142 22.6918 13.1505C22.7946 13.1619 22.9087 13.1619 23.0457 13.1733V9.56648C23.0457 9.48659 23.0799 9.44093 23.1598 9.44093H25.4769C25.5024 9.43747 25.5284 9.44377 25.5495 9.45857C25.5707 9.47338 25.5855 9.4956 25.591 9.52083V20.4098C25.591 20.6152 25.6024 20.8435 25.6138 21.0946C25.6252 21.3457 25.6481 21.5626 25.6595 21.7566C25.6619 21.7951 25.6522 21.8335 25.6317 21.8662C25.6113 21.899 25.5811 21.9245 25.5453 21.9392C24.9475 22.1905 24.3235 22.3742 23.6849 22.4871C23.1048 22.5917 22.5166 22.6452 21.9271 22.6469V22.6469ZM23.0457 20.3641V15.342C22.944 15.3174 22.8412 15.2984 22.7375 15.2849C22.6119 15.2735 22.4864 15.2621 22.3608 15.2621C21.9134 15.257 21.4713 15.3587 21.0711 15.5588C20.681 15.7532 20.3471 16.0439 20.1009 16.4035C19.8498 16.7687 19.7242 17.2595 19.7242 17.853C19.7143 18.2536 19.7801 18.6525 19.9183 19.0287C20.0286 19.3329 20.2039 19.6094 20.4319 19.8391C20.6519 20.0491 20.9176 20.2053 21.208 20.2956C21.5138 20.3957 21.8337 20.4459 22.1554 20.444C22.3266 20.444 22.4864 20.4326 22.6348 20.4212C22.7742 20.4311 22.9142 20.4117 23.0457 20.3641V20.3641Z" fill="#FF61F6"/>
</g>
<defs>
<clipPath id="clip0_102_827">
<rect width="32" height="32" fill="white"/>
</clipPath>
</defs>
</svg>
