<svg width="32" height="32" viewBox="0 0 32 32" fill="none" xmlns="http://www.w3.org/2000/svg">
<g clip-path="url(#clip0_102_824)">
<circle cx="16" cy="16" r="16" fill="#2965F1"/>
<path d="M9.02172 13.6079L9.29126 16.6157H16.0222V13.6079H9.02172ZM8.48 7.52002L8.7534 10.5278H16.0222V7.52002H8.48V7.52002ZM16.0222 21.4196L16.009 21.4231L12.6592 20.5186L12.4451 18.1197H9.42566L9.84702 22.8424L16.0084 24.5527L16.0222 24.549V21.4196Z" fill="#EBEBEB"/>
<path d="M23.0035 13.6079L23.5465 7.52002H16.0119V10.5278H20.2502L19.9765 13.6079H16.0119V16.6157H19.7157L19.3665 20.5167L16.0118 21.4221V24.5513L22.178 22.8424L22.2232 22.3342L22.9301 14.4156L23.0035 13.6079V13.6079Z" fill="white"/>
</g>
<defs>
<clipPath id="clip0_102_824">
<rect width="32" height="32" fill="white"/>
</clipPath>
</defs>
</svg>
