<svg width="32" height="32" viewBox="0 0 32 32" fill="none" xmlns="http://www.w3.org/2000/svg">
<g clip-path="url(#clip0_102_817)">
<circle cx="16" cy="16" r="16" fill="#000B1D"/>
<path d="M13.0935 24.4809C14.6694 24.4809 15.947 23.2034 15.947 21.6274V18.774H13.0935C11.5176 18.774 10.24 20.0515 10.24 21.6274C10.24 23.2034 11.5176 24.4809 13.0935 24.4809Z" fill="#0ACF83"/>
<path d="M10.24 15.9205C10.24 14.3446 11.5176 13.067 13.0935 13.067H15.947V18.774H13.0935C11.5176 18.774 10.24 17.4964 10.24 15.9205Z" fill="#A259FF"/>
<path d="M10.24 10.2135C10.24 8.63754 11.5176 7.35999 13.0935 7.35999H15.947V13.067H13.0935C11.5176 13.067 10.24 11.7894 10.24 10.2135Z" fill="#F24E1E"/>
<path d="M15.9472 7.35999H18.8007C20.3767 7.35999 21.6542 8.63754 21.6542 10.2135C21.6542 11.7894 20.3767 13.067 18.8007 13.067H15.9472V7.35999Z" fill="#FF7262"/>
<path d="M21.6542 15.9205C21.6542 17.4964 20.3767 18.774 18.8007 18.774C17.2248 18.774 15.9472 17.4964 15.9472 15.9205C15.9472 14.3446 17.2248 13.067 18.8007 13.067C20.3767 13.067 21.6542 14.3446 21.6542 15.9205Z" fill="#1ABCFE"/>
</g>
<defs>
<clipPath id="clip0_102_817">
<rect width="32" height="32" fill="white"/>
</clipPath>
</defs>
</svg>
