<svg width="32" height="32" viewBox="0 0 32 32" fill="none" xmlns="http://www.w3.org/2000/svg">
<g clip-path="url(#clip0_102_828)">
<circle cx="16" cy="16" r="16" fill="#430C1F"/>
<path d="M12.3851 10.8279V22.0849C12.3851 22.1899 12.3378 22.2424 12.2433 22.2424H10.3818C10.2873 22.2424 10.24 22.1899 10.24 22.0849V10.8279C10.24 10.7346 10.2873 10.6879 10.3818 10.6879H12.261C12.3437 10.6879 12.3851 10.7346 12.3851 10.8279Z" fill="#EC4E68"/>
<path d="M18.1582 22.4C16.8345 22.4 15.7767 22.0324 14.9849 21.2971C14.193 20.5618 13.7971 19.4764 13.7971 18.0408C13.7971 16.7336 14.2226 15.6598 15.0735 14.8195C15.9245 13.9792 17.0591 13.559 18.4773 13.559C18.8319 13.559 19.1392 13.5882 19.3992 13.6465V9.86505C19.3992 9.79502 19.4346 9.76001 19.5056 9.76001H21.4556C21.5147 9.76001 21.5443 9.79502 21.5443 9.86505V20.3517C21.5443 20.7952 21.562 21.1804 21.5975 21.5072C21.6093 21.5772 21.5797 21.6297 21.5088 21.6647C20.4806 22.1549 19.3637 22.4 18.1582 22.4ZM19.3992 20.6668V15.2572C19.1628 15.1288 18.8437 15.0646 18.4419 15.0646C17.7209 15.0646 17.1359 15.3155 16.6868 15.8174C16.2377 16.3193 16.0131 17.0312 16.0131 17.9533C16.0131 18.9336 16.2318 19.6573 16.6691 20.1241C17.1182 20.591 17.6855 20.8244 18.371 20.8244C18.7964 20.8244 19.1392 20.7719 19.3992 20.6668Z" fill="#EC4E68"/>
</g>
<defs>
<clipPath id="clip0_102_828">
<rect width="32" height="32" fill="white"/>
</clipPath>
</defs>
</svg>
