<svg width="32" height="32" viewBox="0 0 32 32" fill="none" xmlns="http://www.w3.org/2000/svg">
<g clip-path="url(#clip0_102_821)">
<circle cx="16" cy="16" r="16" fill="#000B1D"/>
<path fill-rule="evenodd" clip-rule="evenodd" d="M7.55171 14.9816C7.12639 15.3606 6.94771 15.7261 6.94771 16.0613C6.94771 16.3964 7.12639 16.762 7.55171 17.1409C7.97699 17.5199 8.61538 17.8797 9.43912 18.1901C11.0838 18.81 13.3835 19.2018 15.9441 19.2018C18.5047 19.2018 20.8045 18.81 22.4491 18.1901C23.2729 17.8797 23.9112 17.5199 24.3365 17.1409C24.7618 16.762 24.9405 16.3964 24.9405 16.0613C24.9405 15.7261 24.7618 15.3606 24.3365 14.9816C23.9112 14.6027 23.2729 14.2429 22.4491 13.9324C20.8045 13.3126 18.5047 12.9207 15.9441 12.9207C13.3835 12.9207 11.0838 13.3126 9.43912 13.9324C8.61538 14.2429 7.97699 14.6027 7.55171 14.9816ZM9.14681 13.1768C10.9065 12.5136 13.3098 12.1119 15.9441 12.1119C18.5784 12.1119 20.9817 12.5136 22.7414 13.1768C23.6199 13.5078 24.359 13.9119 24.8856 14.3812C25.4123 14.8505 25.76 15.4175 25.76 16.0613C25.76 16.7051 25.4123 17.2721 24.8856 17.7414C24.359 18.2106 23.6199 18.6147 22.7414 18.9458C20.9817 19.609 18.5784 20.0107 15.9441 20.0107C13.3098 20.0107 10.9065 19.609 9.14681 18.9458C8.26837 18.6147 7.52927 18.2106 7.0026 17.7414C6.47597 17.2721 6.12823 16.7051 6.12823 16.0613C6.12823 15.4175 6.47597 14.8505 7.0026 14.3812C7.52927 13.9119 8.26837 13.5078 9.14681 13.1768Z" fill="#61DAFB"/>
<path fill-rule="evenodd" clip-rule="evenodd" d="M12.6951 8.34743C12.15 8.17335 11.7399 8.20337 11.4459 8.37095C11.1518 8.53852 10.9205 8.87402 10.8006 9.42709C10.6808 9.98009 10.6843 10.7057 10.8238 11.5651C11.1023 13.2809 11.9083 15.4427 13.1886 17.6315C14.4689 19.8204 15.9626 21.5903 17.3288 22.6863C18.013 23.2352 18.6479 23.601 19.193 23.7751C19.7382 23.9492 20.1482 23.9192 20.4423 23.7516C20.7363 23.584 20.9677 23.2485 21.0875 22.6954C21.2074 22.1424 21.2039 21.4168 21.0644 20.5574C20.7859 18.8416 19.9798 16.6798 18.6995 14.491C17.4192 12.3021 15.9255 10.5322 14.5594 9.43624C13.8751 8.88731 13.2402 8.5215 12.6951 8.34743ZM15.0762 8.80853C16.5379 9.98116 18.092 11.8347 19.4092 14.0866C20.7263 16.3384 21.5755 18.5937 21.8735 20.4295C22.0223 21.3459 22.0373 22.1798 21.8889 22.8646C21.7405 23.5494 21.4168 24.1302 20.852 24.4521C20.2872 24.774 19.6158 24.7602 18.9408 24.5447C18.2657 24.3291 17.5416 23.8994 16.8119 23.314C15.3502 22.1414 13.7961 20.2878 12.479 18.036C11.1618 15.7841 10.3126 13.5289 10.0146 11.693C9.86587 10.7766 9.85085 9.94276 9.99925 9.2579C10.1476 8.5731 10.4713 7.99233 11.0361 7.67044C11.601 7.34856 12.2723 7.36228 12.9474 7.57783C13.6224 7.7934 14.3465 8.22316 15.0762 8.80853Z" fill="#61DAFB"/>
<path fill-rule="evenodd" clip-rule="evenodd" d="M21.0876 9.42708C20.9678 8.87402 20.7364 8.53852 20.4424 8.37094C20.1483 8.20337 19.7383 8.17334 19.1931 8.34743C18.648 8.52149 18.0131 8.88731 17.3289 9.43623C15.9627 10.5322 14.469 12.3021 13.1887 14.491C11.9084 16.6798 11.1024 18.8416 10.8239 20.5574C10.6844 21.4168 10.6809 22.1424 10.8007 22.6954C10.9205 23.2485 11.1519 23.584 11.446 23.7516C11.74 23.9191 12.1501 23.9492 12.6952 23.7751C13.2403 23.601 13.8752 23.2352 14.5595 22.6863C15.9256 21.5903 17.4193 19.8204 18.6996 17.6315C19.9799 15.4427 20.786 13.2809 21.0645 11.5651C21.2039 10.7057 21.2075 9.98009 21.0876 9.42708ZM21.8736 11.693C21.5756 13.5289 20.7264 15.7841 19.4093 18.036C18.0921 20.2878 16.538 22.1414 15.0763 23.314C14.3466 23.8994 13.6225 24.3291 12.9475 24.5447C12.2724 24.7602 11.601 24.774 11.0362 24.4521C10.4714 24.1302 10.1477 23.5494 9.99935 22.8646C9.85094 22.1798 9.86596 21.3459 10.0147 20.4295C10.3127 18.5937 11.1619 16.3384 12.479 14.0866C13.7962 11.8347 15.3503 9.98116 16.812 8.80853C17.5417 8.22315 18.2658 7.79339 18.9409 7.57783C19.6159 7.36228 20.2873 7.34856 20.8521 7.67044C21.4169 7.99232 21.7406 8.5731 21.889 9.2579C22.0374 9.94275 22.0224 10.7766 21.8736 11.693Z" fill="#61DAFB"/>
</g>
<defs>
<clipPath id="clip0_102_821">
<rect width="32" height="32" fill="white"/>
</clipPath>
</defs>
</svg>
