<svg width="32" height="32" viewBox="0 0 32 32" fill="none" xmlns="http://www.w3.org/2000/svg">
<g clip-path="url(#clip0_102_822)">
<circle cx="16" cy="16" r="16" fill="#F0F0F0"/>
<path d="M11.3394 18.0723C11.3394 18.9837 10.5959 19.7202 9.676 19.7202C8.7561 19.7202 8.01261 18.9837 8.01261 18.0723C8.01261 17.161 8.7561 16.4244 9.676 16.4244H11.3394V18.0723ZM12.1711 18.0723C12.1711 17.161 12.9146 16.4244 13.8345 16.4244C14.7544 16.4244 15.4979 17.161 15.4979 18.0723V22.1921C15.4979 23.1034 14.7544 23.84 13.8345 23.84C12.9146 23.84 12.1711 23.1034 12.1711 22.1921V18.0723Z" fill="#E01E5A"/>
<path d="M13.8345 11.4558C12.9146 11.4558 12.1711 10.7192 12.1711 9.80787C12.1711 8.89653 12.9146 8.15997 13.8345 8.15997C14.7544 8.15997 15.4979 8.89653 15.4979 9.80787V11.4558H13.8345ZM13.8345 12.2922C14.7544 12.2922 15.4979 13.0288 15.4979 13.9401C15.4979 14.8514 14.7544 15.588 13.8345 15.588H9.66339C8.74348 15.588 8 14.8514 8 13.9401C8 13.0288 8.74348 12.2922 9.66339 12.2922H13.8345Z" fill="#36C5F0"/>
<path d="M20.5006 13.9401C20.5006 13.0288 21.2441 12.2922 22.164 12.2922C23.0839 12.2922 23.8274 13.0288 23.8274 13.9401C23.8274 14.8514 23.0839 15.588 22.164 15.588H20.5006V13.9401ZM19.6689 13.9401C19.6689 14.8514 18.9254 15.588 18.0055 15.588C17.0856 15.588 16.3421 14.8514 16.3421 13.9401V9.80787C16.3421 8.89653 17.0856 8.15997 18.0055 8.15997C18.9254 8.15997 19.6689 8.89653 19.6689 9.80787V13.9401V13.9401Z" fill="#2EB67D"/>
<path d="M18.0055 20.5442C18.9254 20.5442 19.6689 21.2807 19.6689 22.1921C19.6689 23.1034 18.9254 23.84 18.0055 23.84C17.0856 23.84 16.3421 23.1034 16.3421 22.1921V20.5442H18.0055ZM18.0055 19.7202C17.0856 19.7202 16.3421 18.9837 16.3421 18.0723C16.3421 17.161 17.0856 16.4244 18.0055 16.4244H22.1766C23.0965 16.4244 23.84 17.161 23.84 18.0723C23.84 18.9837 23.0965 19.7202 22.1766 19.7202H18.0055Z" fill="#ECB22E"/>
</g>
<defs>
<clipPath id="clip0_102_822">
<rect width="32" height="32" fill="white"/>
</clipPath>
</defs>
</svg>
