<svg width="32" height="33" viewBox="0 0 32 33" fill="none" xmlns="http://www.w3.org/2000/svg">
<path fill-rule="evenodd" clip-rule="evenodd" d="M6.66699 5.83341C5.93061 5.83341 5.33366 6.43037 5.33366 7.16675V25.8334C5.33366 26.5698 5.93061 27.1667 6.66699 27.1667H25.3337C26.07 27.1667 26.667 26.5698 26.667 25.8334V7.16675C26.667 6.43037 26.07 5.83341 25.3337 5.83341H6.66699ZM2.66699 7.16675C2.66699 4.95761 4.45785 3.16675 6.66699 3.16675H25.3337C27.5428 3.16675 29.3337 4.95761 29.3337 7.16675V25.8334C29.3337 28.0426 27.5428 29.8334 25.3337 29.8334H6.66699C4.45785 29.8334 2.66699 28.0426 2.66699 25.8334V7.16675Z" fill="white"/>
<path fill-rule="evenodd" clip-rule="evenodd" d="M9.33333 3.16675C10.0697 3.16675 10.6667 3.7637 10.6667 4.50008V28.5001C10.6667 29.2365 10.0697 29.8334 9.33333 29.8334C8.59695 29.8334 8 29.2365 8 28.5001V4.50008C8 3.7637 8.59695 3.16675 9.33333 3.16675Z" fill="white"/>
<path fill-rule="evenodd" clip-rule="evenodd" d="M2.66699 10.5001C2.66699 9.7637 3.26395 9.16675 4.00033 9.16675H9.33366C10.07 9.16675 10.667 9.7637 10.667 10.5001C10.667 11.2365 10.07 11.8334 9.33366 11.8334H4.00033C3.26395 11.8334 2.66699 11.2365 2.66699 10.5001Z" fill="white"/>
<path fill-rule="evenodd" clip-rule="evenodd" d="M2.66699 16.5001C2.66699 15.7637 3.26395 15.1667 4.00033 15.1667H28.0003C28.7367 15.1667 29.3337 15.7637 29.3337 16.5001C29.3337 17.2365 28.7367 17.8334 28.0003 17.8334H4.00033C3.26395 17.8334 2.66699 17.2365 2.66699 16.5001Z" fill="white"/>
<path fill-rule="evenodd" clip-rule="evenodd" d="M2.66699 22.5001C2.66699 21.7637 3.26395 21.1667 4.00033 21.1667H9.33366C10.07 21.1667 10.667 21.7637 10.667 22.5001C10.667 23.2365 10.07 23.8334 9.33366 23.8334H4.00033C3.26395 23.8334 2.66699 23.2365 2.66699 22.5001Z" fill="white"/>
<path fill-rule="evenodd" clip-rule="evenodd" d="M22.6663 3.16675C23.4027 3.16675 23.9997 3.7637 23.9997 4.50008V28.5001C23.9997 29.2365 23.4027 29.8334 22.6663 29.8334C21.93 29.8334 21.333 29.2365 21.333 28.5001V4.50008C21.333 3.7637 21.93 3.16675 22.6663 3.16675Z" fill="white"/>
<path fill-rule="evenodd" clip-rule="evenodd" d="M21.333 10.5001C21.333 9.7637 21.93 9.16675 22.6663 9.16675H27.9997C28.7361 9.16675 29.333 9.7637 29.333 10.5001C29.333 11.2365 28.7361 11.8334 27.9997 11.8334H22.6663C21.93 11.8334 21.333 11.2365 21.333 10.5001Z" fill="white"/>
<path fill-rule="evenodd" clip-rule="evenodd" d="M21.333 22.5001C21.333 21.7637 21.93 21.1667 22.6663 21.1667H27.9997C28.7361 21.1667 29.333 21.7637 29.333 22.5001C29.333 23.2365 28.7361 23.8334 27.9997 23.8334H22.6663C21.93 23.8334 21.333 23.2365 21.333 22.5001Z" fill="white"/>
</svg>
