<svg width="32" height="33" viewBox="0 0 32 33" fill="none" xmlns="http://www.w3.org/2000/svg">
<path fill-rule="evenodd" clip-rule="evenodd" d="M5.17157 3.00482C5.92172 2.25468 6.93913 1.83325 8 1.83325H20C20.3536 1.83325 20.6928 1.97373 20.9428 2.22378L27.6095 8.89044C27.8595 9.14049 28 9.47963 28 9.83325V27.1666C28 28.2275 27.5786 29.2449 26.8284 29.995C26.0783 30.7452 25.0609 31.1666 24 31.1666H8C6.93913 31.1666 5.92172 30.7452 5.17157 29.995C4.42143 29.2449 4 28.2274 4 27.1666V5.83325C4 4.77239 4.42143 3.75497 5.17157 3.00482ZM8 4.49992C7.64638 4.49992 7.30724 4.64039 7.05719 4.89044C6.80714 5.14049 6.66667 5.47963 6.66667 5.83325V27.1666C6.66667 27.5202 6.80714 27.8593 7.05719 28.1094C7.30724 28.3594 7.64638 28.4999 8 28.4999H24C24.3536 28.4999 24.6928 28.3594 24.9428 28.1094C25.1929 27.8593 25.3333 27.5202 25.3333 27.1666V10.3855L19.4477 4.49992H8Z" fill="#9d9d9d"/>
<path fill-rule="evenodd" clip-rule="evenodd" d="M18.6663 1.83325C19.4027 1.83325 19.9997 2.43021 19.9997 3.16659V8.49992C19.9997 8.85354 20.1402 9.19268 20.3902 9.44273C20.6402 9.69278 20.9794 9.83325 21.333 9.83325H26.6663C27.4027 9.83325 27.9997 10.4302 27.9997 11.1666C27.9997 11.903 27.4027 12.4999 26.6663 12.4999H21.333C20.2721 12.4999 19.2547 12.0785 18.5046 11.3283C17.7544 10.5782 17.333 9.56079 17.333 8.49992V3.16659C17.333 2.43021 17.93 1.83325 18.6663 1.83325Z" fill="#9d9d9d"/>
<path fill-rule="evenodd" clip-rule="evenodd" d="M9.33301 12.5001C9.33301 11.7637 9.92996 11.1667 10.6663 11.1667H13.333C14.0694 11.1667 14.6663 11.7637 14.6663 12.5001C14.6663 13.2365 14.0694 13.8334 13.333 13.8334H10.6663C9.92996 13.8334 9.33301 13.2365 9.33301 12.5001Z" fill="#9d9d9d"/>
<path fill-rule="evenodd" clip-rule="evenodd" d="M9.33301 17.8333C9.33301 17.097 9.92996 16.5 10.6663 16.5H21.333C22.0694 16.5 22.6663 17.097 22.6663 17.8333C22.6663 18.5697 22.0694 19.1667 21.333 19.1667H10.6663C9.92996 19.1667 9.33301 18.5697 9.33301 17.8333Z" fill="#9d9d9d"/>
<path fill-rule="evenodd" clip-rule="evenodd" d="M9.33301 23.1666C9.33301 22.4302 9.92996 21.8333 10.6663 21.8333H21.333C22.0694 21.8333 22.6663 22.4302 22.6663 23.1666C22.6663 23.903 22.0694 24.4999 21.333 24.4999H10.6663C9.92996 24.4999 9.33301 23.903 9.33301 23.1666Z" fill="#9d9d9d"/>
</svg>
