<svg width="32" height="33" viewBox="0 0 32 33" fill="none" xmlns="http://www.w3.org/2000/svg">
<path fill-rule="evenodd" clip-rule="evenodd" d="M2.50458 4.33832C3.25473 3.58818 4.27214 3.16675 5.33301 3.16675H10.573V4.50008L10.5732 3.16675C11.2354 3.16686 11.8873 3.33138 12.4702 3.64554C13.0507 3.95837 13.5448 4.40984 13.9086 4.95972L14.9848 6.55412C14.9877 6.55833 14.9905 6.56256 14.9933 6.56681C15.1159 6.75306 15.2833 6.90558 15.4801 7.0104C15.677 7.11522 15.8969 7.169 16.1199 7.16681C16.1243 7.16677 16.1286 7.16675 16.133 7.16675H26.6663C27.7272 7.16675 28.7446 7.58818 29.4948 8.33832C30.2449 9.08847 30.6663 10.1059 30.6663 11.1667V24.5001C30.6663 25.5609 30.2449 26.5784 29.4948 27.3285C28.7446 28.0787 27.7272 28.5001 26.6663 28.5001H5.33301C4.27214 28.5001 3.25473 28.0787 2.50458 27.3285C1.75444 26.5784 1.33301 25.5609 1.33301 24.5001V7.16675C1.33301 6.10588 1.75443 5.08847 2.50458 4.33832ZM10.573 5.83341C10.5729 5.83341 10.5729 5.83341 10.5728 5.83341H5.33301C4.97939 5.83341 4.64025 5.97389 4.3902 6.22394C4.14015 6.47399 3.99967 6.81313 3.99967 7.16675V24.5001C3.99967 24.8537 4.14015 25.1928 4.3902 25.4429C4.64025 25.6929 4.97939 25.8334 5.33301 25.8334H26.6663C27.02 25.8334 27.3591 25.6929 27.6091 25.4429C27.8592 25.1928 27.9997 24.8537 27.9997 24.5001V11.1667C27.9997 10.8131 27.8592 10.474 27.6091 10.2239C27.3591 9.97389 27.02 9.83342 26.6663 9.83342H16.1389C15.4724 9.83875 14.8151 9.67745 14.2267 9.36411C13.6387 9.05096 13.1382 8.59593 12.7707 8.04035L11.6945 6.44605C11.6917 6.44185 11.6889 6.43764 11.6861 6.43341C11.5647 6.24906 11.3994 6.09773 11.2051 5.99301C11.0109 5.88833 10.7937 5.83349 10.573 5.83341Z" fill="#9d9d9d"/>
<path fill-rule="evenodd" clip-rule="evenodd" d="M1.33301 13.8333C1.33301 13.097 1.92996 12.5 2.66634 12.5H29.333C30.0694 12.5 30.6663 13.097 30.6663 13.8333C30.6663 14.5697 30.0694 15.1667 29.333 15.1667H2.66634C1.92996 15.1667 1.33301 14.5697 1.33301 13.8333Z" fill="#9d9d9d"/>
</svg>
