<svg width="217" height="226" viewBox="0 0 217 226" fill="none" xmlns="http://www.w3.org/2000/svg">
<path fill-rule="evenodd" clip-rule="evenodd" d="M78.127 5.1968C42.9122 7.91872 12.9711 10.3004 11.6101 10.4705C7.69737 11.3211 4.12485 13.8729 2.42366 17.4454L0.892578 20.5076L1.0627 94.3396L1.23282 168.172L3.44437 172.765C4.80533 175.317 13.3113 187.225 22.6679 199.303C41.211 223.46 42.5719 224.651 49.5468 225.502C51.5883 225.672 67.0692 224.992 83.5708 223.971C100.243 222.95 127.121 221.249 143.113 220.398C211.671 216.145 208.098 216.486 212.181 213.083C217.115 209 216.604 215.805 216.945 125.982C217.115 49.9383 216.945 44.8347 215.754 42.6232C214.563 39.9012 212.181 38.2 180.879 16.2546C159.955 1.45417 158.423 0.773689 149.067 0.603569C145.154 0.433449 113.172 2.64501 78.127 5.1968Z" fill="white"/>
<path fill-rule="evenodd" clip-rule="evenodd" d="M78.127 5.1968C42.9122 7.91872 12.9711 10.3004 11.6101 10.4705C7.69737 11.3211 4.12485 13.8729 2.42366 17.4454L0.892578 20.5076L1.0627 94.3396L1.23282 168.172L3.44437 172.765C4.80533 175.317 13.3113 187.225 22.6679 199.303C41.211 223.46 42.5719 224.651 49.5468 225.502C51.5883 225.672 67.0692 224.992 83.5708 223.971C100.243 222.95 127.121 221.249 143.113 220.398C211.671 216.145 208.098 216.486 212.181 213.083C217.115 209 216.604 215.805 216.945 125.982C217.115 49.9383 216.945 44.8347 215.754 42.6232C214.563 39.9012 212.181 38.2 180.879 16.2546C159.955 1.45417 158.423 0.773689 149.067 0.603569C145.154 0.433449 113.172 2.64501 78.127 5.1968ZM157.233 14.8936C160.295 16.2546 181.9 31.2251 184.962 34.1172C185.813 34.9678 186.153 35.8184 185.643 36.1586C184.792 37.0092 50.9078 45.0048 46.995 44.3244C45.2938 44.1542 42.742 43.1335 41.211 42.1128C35.0867 37.8598 19.946 25.4411 19.946 24.5905C19.946 22.2088 19.4356 22.2088 78.9776 17.7857C90.3756 17.1052 109.259 15.7442 120.657 14.7235C145.324 12.8522 152.639 12.8522 157.233 14.8936ZM199.763 53.3407C200.783 54.3614 201.634 56.2327 201.974 58.1041C202.144 59.8053 202.314 91.4475 202.144 128.193C201.974 191.138 201.804 195.221 200.613 196.922C199.933 198.113 198.572 199.303 197.381 199.644C194.489 200.835 54.3102 208.83 51.4182 207.98C50.0572 207.639 48.1859 206.449 47.3353 205.428L45.6341 203.727L45.464 135.679C45.2938 87.875 45.464 66.7802 45.9743 64.9089C46.3146 63.5479 47.5054 61.8467 48.356 61.1662C49.5468 60.3156 57.8827 59.6351 86.4628 57.9339C106.537 56.9132 137.669 55.0419 155.361 53.8511C197.891 51.2993 197.721 51.2993 199.763 53.3407Z" fill="black"/>
<path fill-rule="evenodd" clip-rule="evenodd" d="M162.179 76.6458C154.523 77.1561 147.718 77.8366 147.038 78.347C144.656 79.5378 143.295 81.5792 142.955 83.7908C142.785 86.0023 143.465 86.3426 151.121 87.3633L154.353 87.7035V117.815C154.353 135.677 154.183 147.416 153.673 147.075C153.332 146.735 143.465 131.424 131.557 113.392C119.649 95.0187 109.782 80.0481 109.612 80.0481C109.441 79.878 101.786 80.2183 92.4295 80.8987C81.0314 81.5792 74.737 82.4298 73.5462 83.1103C71.5047 84.131 69.123 87.8737 69.123 90.2553C69.123 91.7864 71.845 92.637 77.4589 92.637H80.5211V179.058L75.5876 180.589C72.0151 181.61 70.6541 182.29 69.9736 183.821C68.9529 186.203 68.9529 188.244 70.1438 188.244C70.484 188.244 78.4796 187.904 87.6661 187.224C105.699 186.203 107.74 185.693 109.612 181.95C110.292 180.929 110.802 179.738 110.802 179.228C110.802 179.058 108.251 178.207 105.359 177.527C102.296 176.846 99.2343 175.996 98.5538 175.996C97.3629 175.655 97.3629 173.444 97.3629 143.163V110.67L118.798 144.183C141.254 179.398 143.976 183.481 147.548 185.182C151.801 187.394 162.689 185.863 168.133 182.29L169.834 181.269L170.004 133.296L170.174 85.1517L173.917 84.4713C178.34 83.6207 180.381 81.5792 180.381 78.0067C180.381 75.7952 180.211 75.625 178.17 75.7952C176.979 75.7952 169.664 76.3055 162.179 76.6458Z" fill="black"/>
</svg>
