<svg width="32" height="33" viewBox="0 0 32 33" fill="none" xmlns="http://www.w3.org/2000/svg">
<path fill-rule="evenodd" clip-rule="evenodd" d="M1.33301 4.50008C1.33301 3.7637 1.92996 3.16675 2.66634 3.16675H29.333C30.0694 3.16675 30.6663 3.7637 30.6663 4.50008C30.6663 5.23646 30.0694 5.83341 29.333 5.83341H2.66634C1.92996 5.83341 1.33301 5.23646 1.33301 4.50008Z" fill="#9d9d9d"/>
<path fill-rule="evenodd" clip-rule="evenodd" d="M4.00033 3.16675C4.73671 3.16675 5.33366 3.7637 5.33366 4.50008V19.1667C5.33366 19.5204 5.47413 19.8595 5.72418 20.1096C5.97423 20.3596 6.31337 20.5001 6.66699 20.5001H25.3337C25.6873 20.5001 26.0264 20.3596 26.2765 20.1096C26.5265 19.8595 26.667 19.5204 26.667 19.1667V4.50008C26.667 3.7637 27.2639 3.16675 28.0003 3.16675C28.7367 3.16675 29.3337 3.7637 29.3337 4.50008V19.1667C29.3337 20.2276 28.9122 21.245 28.1621 21.9952C27.4119 22.7453 26.3945 23.1667 25.3337 23.1667H6.66699C5.60613 23.1667 4.58871 22.7453 3.83856 21.9952C3.08842 21.245 2.66699 20.2276 2.66699 19.1667V4.50008C2.66699 3.7637 3.26395 3.16675 4.00033 3.16675Z" fill="#9d9d9d"/>
<path fill-rule="evenodd" clip-rule="evenodd" d="M15.0572 20.8905C15.5779 20.3698 16.4221 20.3698 16.9428 20.8905L23.6095 27.5572C24.1302 28.0779 24.1302 28.9221 23.6095 29.4428C23.0888 29.9635 22.2446 29.9635 21.7239 29.4428L16 23.719L10.2761 29.4428C9.75544 29.9635 8.91122 29.9635 8.39052 29.4428C7.86983 28.9221 7.86983 28.0779 8.39052 27.5572L15.0572 20.8905Z" fill="#9d9d9d"/>
</svg>
