<svg width="32" height="33" viewBox="0 0 32 33" fill="none" xmlns="http://www.w3.org/2000/svg">
<path fill-rule="evenodd" clip-rule="evenodd" d="M16 5.83341C13.0545 5.83341 10.6667 8.22123 10.6667 11.1667C10.6667 14.1123 13.0545 16.5001 16 16.5001C18.9455 16.5001 21.3333 14.1123 21.3333 11.1667C21.3333 8.22123 18.9455 5.83341 16 5.83341ZM8 11.1667C8 6.74847 11.5817 3.16675 16 3.16675C20.4183 3.16675 24 6.74847 24 11.1667C24 15.585 20.4183 19.1667 16 19.1667C11.5817 19.1667 8 15.585 8 11.1667Z" fill="#9d9d9d"/>
<path fill-rule="evenodd" clip-rule="evenodd" d="M7.51472 20.0147C9.76516 17.7643 12.8174 16.5 16 16.5C19.1826 16.5 22.2348 17.7643 24.4853 20.0147C26.7357 22.2652 28 25.3174 28 28.5C28 29.2364 27.403 29.8333 26.6667 29.8333C25.9303 29.8333 25.3333 29.2364 25.3333 28.5C25.3333 26.0246 24.35 23.6507 22.5997 21.9003C20.8493 20.15 18.4754 19.1667 16 19.1667C13.5246 19.1667 11.1507 20.15 9.40034 21.9003C7.65 23.6507 6.66667 26.0246 6.66667 28.5C6.66667 29.2364 6.06971 29.8333 5.33333 29.8333C4.59695 29.8333 4 29.2364 4 28.5C4 25.3174 5.26428 22.2652 7.51472 20.0147Z" fill="#9d9d9d"/>
</svg>
